<?xml version="1.0" standalone="no"?>
<!DOCTYPE svg PUBLIC "-//W3C//DTD SVG 20010904//EN"
 "http://www.w3.org/TR/2001/REC-SVG-20010904/DTD/svg10.dtd">
<svg version="1.0" xmlns="http://www.w3.org/2000/svg"
 width="500.000000pt" height="500.000000pt" viewBox="0 0 500.000000 500.000000"
 preserveAspectRatio="xMidYMid meet">

<g transform="translate(0.000000,500.000000) scale(0.100000,-0.100000)"
fill="#000000" stroke="none">
<path d="M2290 4679 c-126 -13 -223 -34 -255 -55 -44 -28 -61 -79 -101 -303
-38 -212 -39 -214 -67 -224 -101 -35 -292 -143 -404 -229 l-52 -40 -201 72
c-227 81 -260 89 -312 67 -69 -29 -257 -292 -358 -502 -109 -224 -127 -296
-92 -361 9 -18 95 -98 190 -179 135 -116 171 -152 167 -166 -21 -64 -21 -454
-1 -517 5 -15 -32 -51 -168 -167 -181 -153 -206 -183 -206 -250 0 -43 72 -223
137 -345 112 -209 269 -418 333 -444 22 -9 49 -16 59 -16 11 0 116 34 235 76
l215 76 83 -60 c111 -79 209 -136 315 -182 l88 -38 32 -173 c47 -256 52 -276
80 -309 47 -57 99 -70 347 -91 217 -19 543 13 604 58 54 40 62 63 105 292 l41
223 29 11 c103 35 291 141 400 224 l58 45 216 -77 c231 -81 257 -85 315 -47
45 30 168 190 250 327 87 144 198 397 198 451 0 61 -37 106 -206 249 l-165
139 8 86 c10 109 10 291 0 401 l-8 86 155 132 c178 151 203 178 212 229 20
103 -173 487 -364 723 -64 79 -108 109 -160 109 -17 0 -125 -34 -240 -75
l-211 -75 -68 51 c-92 69 -233 151 -335 195 l-85 37 -39 211 c-42 232 -60 279
-115 308 -80 41 -453 68 -659 47z m412 -358 c4 -3 26 -111 50 -238 l42 -233
46 -17 c269 -98 374 -155 558 -303 l123 -98 82 28 c45 15 147 51 225 79 79 28
145 51 146 51 14 0 206 -330 206 -353 0 -3 -64 -61 -142 -128 -79 -67 -160
-138 -182 -157 l-38 -34 23 -141 c31 -191 31 -363 0 -555 -20 -122 -22 -145
-10 -156 8 -7 89 -77 182 -155 92 -78 167 -145 167 -147 0 -28 -192 -354 -209
-354 -3 0 -51 16 -106 36 -55 20 -155 55 -222 79 l-122 43 -108 -88 c-179
-145 -297 -212 -519 -294 l-100 -37 -43 -232 c-23 -128 -46 -236 -51 -241 -11
-11 -389 -11 -401 1 -6 6 -28 111 -51 234 -22 123 -45 229 -52 235 -6 6 -56
29 -111 49 -201 76 -322 147 -497 288 l-106 86 -227 -79 c-124 -44 -227 -80
-229 -80 -2 0 -31 42 -64 93 -68 105 -145 254 -138 266 3 4 86 77 184 160
l178 152 -23 142 c-30 189 -30 365 0 554 l23 142 -178 152 c-98 83 -181 156
-184 160 -7 12 70 161 138 267 33 50 62 92 64 92 2 0 105 -36 230 -80 l226
-80 102 83 c178 147 289 211 504 293 63 23 115 44 116 46 2 2 19 98 40 213 21
116 41 221 45 235 7 23 13 25 92 31 95 6 310 0 321 -10z"/>
<path d="M2370 3399 c-316 -48 -590 -282 -688 -589 -170 -527 206 -1080 759
-1116 406 -27 765 225 885 621 23 77 27 109 28 220 0 74 -5 156 -13 190 -70
320 -316 576 -630 656 -91 23 -251 32 -341 18z m280 -326 c177 -48 322 -194
376 -378 23 -79 23 -211 0 -290 -59 -200 -217 -349 -415 -391 -180 -38 -361
16 -491 146 -174 174 -214 417 -105 635 116 235 376 349 635 278z"/>
</g>
</svg>
