<?xml version="1.0" standalone="no"?>
<!DOCTYPE svg PUBLIC "-//W3C//DTD SVG 20010904//EN"
 "http://www.w3.org/TR/2001/REC-SVG-20010904/DTD/svg10.dtd">
<svg version="1.0" xmlns="http://www.w3.org/2000/svg"
 width="500.000000pt" height="500.000000pt" viewBox="0 0 500.000000 500.000000"
 preserveAspectRatio="xMidYMid meet">

<g transform="translate(0.000000,500.000000) scale(0.100000,-0.100000)"
fill="#000000" stroke="none">
<path d="M2265 4990 c-16 -4 -50 -8 -75 -9 -116 -3 -402 -78 -625 -163 -254
-98 -395 -182 -670 -404 -274 -220 -547 -581 -679 -896 -183 -438 -254 -905
-201 -1315 33 -248 133 -586 240 -808 99 -205 265 -442 435 -619 235 -245 575
-482 820 -571 278 -102 543 -171 697 -182 41 -3 76 -10 79 -14 7 -12 421 -12
428 -1 3 5 43 12 88 15 166 12 430 82 673 178 210 84 365 175 551 326 54 43
116 92 138 109 113 87 380 406 481 575 175 293 298 669 345 1049 15 121 8 423
-13 555 -36 229 -64 340 -145 570 -90 256 -186 429 -353 635 -46 56 -98 121
-115 144 -83 110 -390 367 -567 475 -265 162 -668 301 -1005 346 -118 16 -471
19 -527 5z m401 -755 c58 -14 142 -46 203 -76 84 -41 120 -67 189 -133 181
-173 264 -360 264 -596 1 -150 -13 -214 -72 -336 -121 -251 -289 -392 -550
-464 -115 -31 -280 -32 -396 -2 -117 31 -258 101 -331 163 -120 103 -230 278
-275 436 -32 113 -32 277 1 393 70 254 211 430 431 540 200 99 353 121 536 75z
m482 -2051 c49 -10 119 -36 192 -71 107 -53 123 -64 226 -167 102 -102 116
-120 162 -216 87 -180 111 -369 63 -492 -39 -100 -92 -148 -334 -306 -261
-170 -569 -265 -902 -279 -365 -15 -739 91 -1044 296 -214 143 -226 153 -265
215 -55 85 -70 145 -63 250 8 121 27 191 86 311 41 83 66 117 146 203 129 136
274 221 439 257 97 21 1189 21 1294 -1z"/>
</g>
</svg>
